# xmcd
#
# Track frame offsets:
#	150
#	21344
#	43260
#	64221
#	81609
#	104502
#	126814
#	147547
#	169823
#	186714
#	203857
#	224650
#
# Disc length: 3241 seconds
#
# Revision: 9
# Processed by: cddbd v1.5.1PL0 Copyright (c) Steve Scherf et al.
# Submitted via: audiograbber 1.83.01
#
DISCID=cd0ca70c
DTITLE=Ricci - Amores
DYEAR=2002
DGENRE=Ballad
TTITLE0=Tras la huella de tu amor
TTITLE1=Para un sueño breve
TTITLE2=Si yo fuera poeta
TTITLE3=En la distancia
TTITLE4=Caminar
TTITLE5=Que difícil es
TTITLE6=Si tienes un amor
TTITLE7=Hola mi amor
TTITLE8=Ritmo loco
TTITLE9=Absurdo juegos de niños
TTITLE10=Si yo fuera poeta (saxo)
TTITLE11=Ritmo loco (remix)
EXTD=Piano, programación y arreglos musicales de Ramiro Allende. Saxo tenor en 
EXTD="Si yo fuera poeta" por Alejo von der Pahlen. Remix de Ritmo loco por DJ M
EXTD=iguel Ángel Leonelli. Mezclado y masterizado por Franco Favini. Grabado en
EXTD="La Oficina", Lavalle 1569, 3º, 303, (4737-3198) Buenos Aires - Argentina.
EXTD=Fotos realizadas por Raúl Stolkiner. Diseño gráfico de Franco Favini. Tod
EXTD=os los temas compuestos por Ricci excepto "Si yo fuera poeta" letra de Jan
EXTD=ny Linares y música de Ricci. Producido por R.R. producciones (4362-1039) 
EXTD=Buenos Aires Argentina.
EXTT0=
EXTT1=
EXTT2=
EXTT3=
EXTT4=
EXTT5=
EXTT6=
EXTT7=
EXTT8=
EXTT9=
EXTT10=
EXTT11=
PLAYORDER=
